<?xml version="1.0" encoding="utf-8"?>
<!-- Generator: Adobe Illustrator 16.0.0, SVG Export Plug-In . SVG Version: 6.00 Build 0)  -->
<!DOCTYPE svg PUBLIC "-//W3C//DTD SVG 1.1//EN" "http://www.w3.org/Graphics/SVG/1.1/DTD/svg11.dtd">

<svg width="205.167" height="37.473" xmlns="http://www.w3.org/2000/svg">
 <g>
  <title>Layer 1</title>
  <g id="Layer_4" display="none">
   <path fill="#FFFFFF" d="m170.147995,17.940001c-3.716003,-0.685001 -5.986008,-1.312 -7.348007,-2.673c-1.360001,-1.360001 -1.987991,-3.63 -2.673004,-7.348c-0.057999,-0.307 -0.320999,-0.528 -0.635986,-0.528c-0.312012,0 -0.580002,0.225 -0.63501,0.528c-0.684998,3.718 -1.311996,5.986 -2.673004,7.348c-1.360992,1.360001 -3.632996,1.987999 -7.347992,2.673c-0.306,0.059 -0.528,0.321999 -0.528,0.636999c0,0.312 0.223999,0.579 0.528,0.635c3.714996,0.684999 5.985992,1.313 7.347992,2.673c1.359009,1.360001 1.988007,3.632 2.673004,7.348c0.055008,0.307001 0.320999,0.528 0.63501,0.528c0.311996,0 0.577988,-0.223999 0.635986,-0.528c0.685013,-3.716 1.312012,-5.985001 2.673004,-7.348c1.360001,-1.357 3.632004,-1.988001 7.348007,-2.673c0.307007,-0.056 0.528,-0.320999 0.528,-0.635s-0.220993,-0.579 -0.528,-0.636999z" id="svg_1"/>
  </g>
  <g id="Layer_2" display="none">
   <path fill="none" stroke="#000000" stroke-width="8" stroke-linecap="round" stroke-miterlimit="10" d="m-13.007,-45.615002c6.705,-9.824997 10.625,-21.702999 10.625,-34.495998c0,-33.843002 -27.434999,-61.275002 -61.277,-61.275002c-33.841999,0 -61.275997,27.435005 -61.275997,61.275002c0,33.842999 27.434998,61.276001 61.275997,61.276001c14.612999,0 28.031002,-5.115002 38.562,-13.652" id="svg_2"/>
  </g>
  <text font-weight="bold" transform="matrix(1.7879358483315855,0,0,1.7879358483315855,33.005379086510715,-4.416531034904276) " xml:space="preserve" text-anchor="middle" font-family="Fantasy" font-size="24" id="svg_3" y="22.451343" x="38.122559" stroke-linecap="null" stroke-linejoin="null" stroke-width="0" fill="#ffffff">BEGONA P.R.</text>
 </g>
</svg>
